<?xml version="1.0" encoding="utf-8"?>
<svg version="1.1" id="Layer_1" xmlns="http://www.w3.org/2000/svg" xmlns:xlink="http://www.w3.org/1999/xlink" x="0px" y="0px"
	 viewBox="0 0 287.4 126.5" style="enable-background:new 0 0 287.4 126.5;" xml:space="preserve">
<style type="text/css">
	.st0{fill:#EE456C;}
	.st1{fill:#2A8EB9;}
	.st2{fill:#9454A0;}
</style>
<g>
	<path class="st0" d="M285.8,8.1c-1.4-1.4-3.6-2-5.9-1.6L255,10.7c-3.8,0.7-6.8,3.8-6.8,7.2c0,1.5,0.6,2.9,1.6,3.9
		c1.4,1.4,3.6,2,5.9,1.6l6-1c0,1.3,0,63.9,0,63.9c0,2,0.7,3.8,1.9,5c1,1,2.4,1.6,3.8,1.5c0.3,0,0.5,0,0.8-0.1c0,0,0,0,0.1,0
		c3.3-0.6,5.8-4,5.8-7.9l0-64.6l6.7-1.1c3.8-0.7,6.8-3.8,6.8-7.2C287.4,10.5,286.8,9.1,285.8,8.1z"/>
	<path class="st0" d="M249.5,82.4l-19.5,3l-0.1-62.9c0-2-0.6-3.8-1.9-5.1c-1.2-1.2-2.8-1.8-4.5-1.5c-3.3,0.5-5.9,3.9-5.9,7.8l0,68.9
		c0,1.8,0.6,3.5,1.8,4.7c1.2,1.2,2.8,1.8,4.5,1.8l0,0c0.4,0,0.7,0,1.1-0.1l25-3.9c3.8-0.6,6.8-3.7,6.9-7.1c0-1.5-0.5-2.9-1.6-3.9
		C253.9,82.7,251.7,82,249.5,82.4z"/>
	<path class="st0" d="M160.7,74c1-1.3,2.6-3.7,2.6-7.1l0-28.7c0-1.8-0.6-3.5-1.8-4.7c-1.4-1.4-3.5-2.1-5.6-1.8l-31.3,4.8
		c-1,0.2-1.8,1-1.8,2v79.4c0,0.6,0.3,1.2,0.7,1.6c0.4,0.3,0.9,0.5,1.4,0.5c0.1,0,30.4-4.7,30.4-4.7c3.8-0.6,8-4.1,8-8.1
		c0,0,0-27.5,0-27.6C163.2,75.3,161.5,75.2,160.7,74z M135.7,47.7l11.9-1.8h0c0.8-0.1,1.5,0.1,2,0.6c0.3,0.3,0.5,0.7,0.6,1.1V65
		c-0.2,1.7-1.9,3.3-3.6,3.6l-10.9,1.6V47.7z M150.2,100.2c0,0.1,0,0.2,0,0.3c-0.2,1.7-1.9,3.3-3.6,3.6l-10.9,1.6l-0.1,0l0-22.5
		l0.1,0l11.9-1.8h0c0.8-0.1,1.5,0.1,2,0.6c0.3,0.3,0.5,0.7,0.6,1.1c0,0.2,0.1,0.4,0,0.6L150.2,100.2z"/>
	<path class="st0" d="M208.5,23.4c-1.4-1.4-3.5-2.1-5.6-1.8l-26.4,4.1c-3.4,1.1-6.7,4.3-6.6,7.8l0,69.2c0,1.8,0.6,3.5,1.8,4.7
		c1.4,1.4,3.5,2.1,5.6,1.8l26.4-4.1c3.4-1.1,6.7-4.3,6.6-7.8l0-69.2C210.3,26.3,209.7,24.6,208.5,23.4z M185.5,95L185.5,95
		c-0.8,0.1-1.5-0.1-2-0.6c-0.3-0.3-0.5-0.7-0.6-1.1V39.9c0.2-1.4,1.5-2.8,2.9-3.4l8.9-1.4h0c0.8-0.1,1.5,0.1,2,0.6
		c0.3,0.3,0.5,0.7,0.6,1.1c0,0.2,0.1,0.4,0.1,0.6c0,0,0,52.5,0,52.6c-0.2,1.5-1.3,3.4-2.9,3.7L185.5,95z"/>
</g>
<g>
	<path class="st1" d="M95.9,77.5L58.2,39.8c0,0,0,0,0,0c-0.3,0-0.6-0.1-0.9-0.3c-0.5-0.3-0.8-0.9-0.8-1.4L35.2,16.8
		c-1.4-1.5-2.6-3.9,0-6.5c0.3-0.3,1.7-1.5,3.5-1.6c1.2,0,2.3,0.4,3.2,1.2l49.5,49.5c0.7,0.7,1.6,1.1,2.6,1.1c1.1,0.1,2.2-0.3,3-1.1
		c0.8-0.7,1.2-1.7,1.2-2.8c0-1.1-0.4-2.1-1.1-2.8L47.7,4.5c-0.6-0.6-3.8-3.7-8.5-4c-0.2,0-0.3,0-0.4,0c-0.2,0-0.4,0-0.6,0
		c-3,0.1-5.7,1.4-8.2,3.8l-0.3,0.3c-3.3,3.2-4,6.5-4,8.7c0,5.1,3.4,8.6,3.8,9L90.2,83c1.4,1.5,2.6,3.9,0,6.5
		c-0.2,0.2-1.6,1.5-3.6,1.6c-1.2,0-2.3-0.4-3.2-1.2L24.2,31.5c-0.6-0.6-3.8-3.7-8.5-4c-0.2,0-0.3,0-0.5,0c-3.1,0-6.1,1.3-8.7,3.8
		l-0.3,0.3c-3.2,3.2-3.9,6.5-4,8.7c0,5.2,3.6,8.8,3.8,9l61.1,61.1c0,0,1.5,1.7,1.5,3.4c0,1-0.5,2-1.5,3c-0.3,0.3-1.7,1.5-3.6,1.6
		c-1.2,0-2.3-0.4-3.2-1.2L6.8,62.8c-0.8-0.8-1.8-1.2-3-1.2c-1,0-1.9,0.4-2.6,1.1C0.4,63.5,0,64.5,0,65.5c0,1.1,0.4,2.1,1.1,2.8
		l53.4,54.2c0.6,0.6,3.8,3.7,8.5,4l0.5,0c0.2,0,0.4,0,0.6,0c3-0.1,5.7-1.4,8.1-3.7l0.4-0.4c3.2-3.2,3.9-6.4,3.9-8.6
		c0-5.1-3.4-8.6-3.8-9l-61-61c-1.4-1.6-2.6-3.9,0-6.5c0.2-0.2,1.6-1.5,3.5-1.6c1.2,0,2.3,0.4,3.2,1.2l59.3,58.3
		c0.8,0.9,3.9,3.7,8.3,4c0.2,0,0.4,0,0.6,0c0.2,0,0.4,0,0.6,0c3-0.1,5.7-1.4,8.1-3.8l0.4-0.4c3.2-3.2,3.9-6.5,3.9-8.6
		C99.7,81.5,96.3,77.9,95.9,77.5z"/>
	<path class="st0" d="M82.2,1.9c-1.7-1.1-3.6-1.7-5.5-1.9c-4.5-0.4-8.9,1.8-11.3,5.6L13.5,86.4c-1.7,2.6-1.8,6-0.2,8.7
		c1.4,2.3,3.8,3.9,6.5,4.1c1.7,0.1,3.4-0.2,4.9-1.1l26.1-15.2l0.4,0.4L26.3,123c-0.7,1-0.4,2.4,0.6,3.1c0.3,0.2,0.7,0.4,1.1,0.4
		c0.8,0.1,1.5-0.2,2-0.9l45.7-58l0.1-0.1c1.4-1.8,1.6-4.2,0.7-6.3c-0.9-1.9-2.8-3.2-4.9-3.4c-1.1-0.1-2.2,0.1-3.1,0.6l-18.9,9.1
		l-0.4-0.4c36.2-47.6,35.1-45.8,36.7-48.3C89.5,13.1,87.8,5.6,82.2,1.9z M75.5,18.6c-0.1,0.3-0.3,0.6-0.6,0.9L62.6,35.3l-3,3.9
		c-0.4,0.5-0.9,0.7-1.4,0.7c-0.3,0-0.6-0.1-0.9-0.3c-0.8-0.5-1-1.5-0.5-2.3l3-5.2v0l9.4-16.4c0.6-1.2,1.9-2,3.2-2
		c0.5,0,0.9,0.1,1.3,0.3c0.9,0.4,1.5,1.1,1.8,1.9C75.9,16.8,75.9,17.7,75.5,18.6z"/>
	<path class="st2" d="M49.1,67.1c1.7-2.2,3.3-4.3,4.8-6.4L39.2,46.3l-4.4,6.8L49.1,67.1z"/>
	<polygon class="st2" points="61.3,29.3 65.4,22.2 58.8,15.7 54.5,22.5 	"/>
	<polygon class="st2" points="41.8,98.3 37.5,105.2 42.3,110.1 47.2,103.8 	"/>
</g>
</svg>
