<svg xmlns="http://www.w3.org/2000/svg" xmlns:xlink="http://www.w3.org/1999/xlink" viewBox="0 0 249.3 210.88"><defs><style>.cls-1{isolation:isolate;}.cls-2{fill:url(#linear-gradient);}.cls-3{fill:url(#linear-gradient-2);}.cls-4{fill:#c1c7d0;}.cls-5,.cls-6,.cls-7{opacity:0.7;}.cls-5{fill:url(#New_Gradient_Swatch_23);}.cls-6{fill:url(#New_Gradient_Swatch_23-2);}.cls-7{fill:url(#New_Gradient_Swatch_23-3);}.cls-8{fill:#2684ff;}.cls-18,.cls-9{fill:#dfe1e5;}.cls-12,.cls-19,.cls-9{mix-blend-mode:multiply;}.cls-10{fill:url(#New_Gradient_Swatch_1);}.cls-11{fill:url(#linear-gradient-3);}.cls-12{fill:url(#New_Gradient_Swatch_24);}.cls-13{fill:url(#linear-gradient-4);}.cls-14{fill:url(#New_Gradient_Swatch_15);}.cls-15{fill:url(#New_Gradient_Swatch_16);}.cls-16{fill:#0065ff;}.cls-17{fill:#b2d4ff;}.cls-19{fill:url(#linear-gradient-5);}.cls-20{fill:#253858;}</style><linearGradient id="linear-gradient" x1="124.65" y1="210.49" x2="124.65" y2="140.58" gradientUnits="userSpaceOnUse"><stop offset="0.03" stop-color="#7a869a" stop-opacity="0"/><stop offset="0.07" stop-color="#7a869a" stop-opacity="0.05"/><stop offset="0.21" stop-color="#7a869a" stop-opacity="0.19"/><stop offset="0.35" stop-color="#7a869a" stop-opacity="0.27"/><stop offset="0.48" stop-color="#7a869a" stop-opacity="0.3"/><stop offset="0.62" stop-color="#838ea1" stop-opacity="0.28"/><stop offset="0.74" stop-color="#9ea6b5" stop-opacity="0.21"/><stop offset="0.85" stop-color="#cbd0d8" stop-opacity="0.1"/><stop offset="0.92" stop-color="#f4f5f7" stop-opacity="0"/></linearGradient><linearGradient id="linear-gradient-2" x1="88.9" y1="96.89" x2="160.4" y2="96.89" gradientUnits="userSpaceOnUse"><stop offset="0" stop-color="#c1c7d0"/><stop offset="1" stop-color="#fafbfc"/></linearGradient><linearGradient id="New_Gradient_Swatch_23" x1="42.96" y1="182.85" x2="89.96" y2="182.85" gradientUnits="userSpaceOnUse"><stop offset="0" stop-color="#7a869a"/><stop offset="1" stop-color="#7a869a" stop-opacity="0.1"/></linearGradient><linearGradient id="New_Gradient_Swatch_23-2" x1="110.7" y1="179.42" x2="138.6" y2="179.42" xlink:href="#New_Gradient_Swatch_23"/><linearGradient id="New_Gradient_Swatch_23-3" x1="158.4" y1="182.85" x2="201.77" y2="182.85" xlink:href="#New_Gradient_Swatch_23"/><linearGradient id="New_Gradient_Swatch_1" x1="61" y1="118.48" x2="88.9" y2="118.48" gradientUnits="userSpaceOnUse"><stop offset="0" stop-color="#de350b"/><stop offset="1" stop-color="#ff7452"/></linearGradient><linearGradient id="linear-gradient-3" x1="133.21" y1="166.59" x2="215.48" y2="84.32" gradientUnits="userSpaceOnUse"><stop offset="0" stop-color="#ff5630"/><stop offset="0.21" stop-color="#ff5933"/><stop offset="0.39" stop-color="#ff623e"/><stop offset="0.56" stop-color="#ff7250"/><stop offset="0.73" stop-color="#ff876a"/><stop offset="0.78" stop-color="#ff8f73"/></linearGradient><linearGradient id="New_Gradient_Swatch_24" x1="3718.72" y1="151.92" x2="3762.09" y2="151.92" gradientTransform="matrix(-1, 0, 0, 1, 3922.49, 0)" gradientUnits="userSpaceOnUse"><stop offset="0" stop-color="#c1c7d0"/><stop offset="1" stop-color="#c1c7d0" stop-opacity="0.1"/></linearGradient><linearGradient id="linear-gradient-4" x1="45.53" y1="161.59" x2="88.9" y2="161.59" gradientUnits="userSpaceOnUse"><stop offset="0" stop-color="#2684ff"/><stop offset="1" stop-color="#0052cc"/></linearGradient><linearGradient id="New_Gradient_Swatch_15" x1="99.01" y1="27.4" x2="150.28" y2="27.4" gradientUnits="userSpaceOnUse"><stop offset="0" stop-color="#0065ff"/><stop offset="1" stop-color="#4c9aff"/></linearGradient><linearGradient id="New_Gradient_Swatch_16" x1="124.65" y1="201.08" x2="124.65" y2="126.45" gradientUnits="userSpaceOnUse"><stop offset="0" stop-color="#2684ff"/><stop offset="1" stop-color="#b2d4ff"/></linearGradient><linearGradient id="linear-gradient-5" x1="93.08" y1="189.91" x2="137.33" y2="145.66" gradientUnits="userSpaceOnUse"><stop offset="0" stop-color="#c1c7d0" stop-opacity="0.1"/><stop offset="1" stop-color="#c1c7d0"/></linearGradient></defs><title>Rocket</title><g class="cls-1"><g id="Layer_2" data-name="Layer 2"><g id="Objects"><path class="cls-2" d="M249.3,195.64a14.85,14.85,0,0,1-14.86,14.85H14.86a14.86,14.86,0,1,1,0-29.71h.27a26,26,0,0,1,25.72-22.3q1.28,0,2.52.12a26,26,0,0,1,24.75-18H184a26,26,0,0,1,24.75,18c.83-.08,1.66-.12,2.51-.12A26,26,0,0,1,237,181,14.87,14.87,0,0,1,249.3,195.64Z"/><path id="_Path_" data-name="&lt;Path&gt;" class="cls-3" d="M160.4,193.78H88.9v-132C88.9,42,124.65,0,124.65,0h0S160.4,42,160.4,61.75Z"/><rect id="_Rectangle_" data-name="&lt;Rectangle&gt;" class="cls-4" x="110.7" y="162.18" width="27.89" height="48.69"/><rect id="_Rectangle_2" data-name="&lt;Rectangle&gt;" class="cls-4" x="61" y="162.18" width="27.89" height="48.69"/><path class="cls-5" d="M73.11,163.83c-3.87,3.48-8.07,5.58-12.1,7.66v26.29H73.91v4.48a1.26,1.26,0,0,0,2.53,0v-4.48H88.9V162.18h-14Z"/><rect id="_Rectangle_3" data-name="&lt;Rectangle&gt;" class="cls-4" x="160.4" y="162.18" width="27.89" height="48.69"/><rect class="cls-6" x="110.7" y="162.18" width="27.89" height="34.47"/><path class="cls-7" d="M188.3,174c-5.31-3.14-11.3-5.32-16.67-10.14-.56-.5-1.12-1.06-1.69-1.64H160.4v35.59h7.89v4.48a1.26,1.26,0,0,0,2.53,0v-4.48h12.95v4.48a1.26,1.26,0,0,0,2.53,0v-4.48h2Z"/><rect class="cls-8" x="88.9" y="126.45" width="71.5" height="67.33"/><rect class="cls-9" x="88.9" y="183.71" width="71.5" height="2"/><rect class="cls-9" x="88.9" y="174.73" width="71.5" height="2"/><rect class="cls-9" x="88.9" y="165.74" width="71.5" height="2"/><path id="_Path_2" data-name="&lt;Path&gt;" class="cls-10" d="M88.9,193.78H61V67.27C61,59.57,75,43.18,75,43.18h0S88.9,59.57,88.9,67.27Z"/><path class="cls-9" d="M75.67,150.76c-4.7,4.23-9.89,6.42-14.67,9v24.94H88.9V120.33C87.15,137.13,81.13,145.86,75.67,150.76Z"/><rect class="cls-9" x="61" y="95.73" width="27.89" height="2"/><rect class="cls-9" x="61" y="86.74" width="27.89" height="2"/><rect class="cls-9" x="61" y="77.75" width="27.89" height="2"/><path id="_Path_3" data-name="&lt;Path&gt;" class="cls-11" d="M188.3,193.78H160.4V67.27c0-7.7,13.95-24.09,13.95-24.09h0S188.3,59.57,188.3,67.27Z"/><rect class="cls-9" x="160.4" y="95.73" width="27.89" height="2"/><rect class="cls-9" x="160.4" y="86.74" width="27.89" height="2"/><rect class="cls-9" x="160.4" y="77.75" width="27.89" height="2"/><path class="cls-12" d="M188.3,159.17c-4.78-2.59-10-4.79-14.67-9-5.45-4.9-11.48-13.63-13.22-30.43v64.38H188.3Z"/><path class="cls-13" d="M45.53,193.78A29.1,29.1,0,0,1,49,179.68c6.22-11.08,17.37-11.53,26.63-19.85,5.45-4.9,11.48-13.63,13.22-30.43v64.38Z"/><path class="cls-14" d="M142.53,23.47C133.59,10.5,124.65,0,124.65,0S109.58,17.7,99,35.52a21.8,21.8,0,0,1,3.45-.27,22.19,22.19,0,0,1,22,19.55h.33a22.18,22.18,0,0,1,22-19.55,21.9,21.9,0,0,1,3.45.27C147.86,31.43,145.19,27.34,142.53,23.47Z"/><rect class="cls-15" x="121.39" y="126.45" width="6.52" height="74.63"/><path class="cls-16" d="M45.53,193.78h2.53a0,0,0,0,1,0,0v4.48a1.26,1.26,0,0,1-1.26,1.26h0a1.26,1.26,0,0,1-1.26-1.26v-4.48a0,0,0,0,1,0,0Z"/><path class="cls-16" d="M61,193.78h2.53a0,0,0,0,1,0,0v4.48a1.26,1.26,0,0,1-1.26,1.26h0A1.26,1.26,0,0,1,61,198.26v-4.48A0,0,0,0,1,61,193.78Z"/><path class="cls-16" d="M76.48,193.78H79a0,0,0,0,1,0,0v4.48a1.26,1.26,0,0,1-1.26,1.26h0a1.26,1.26,0,0,1-1.26-1.26v-4.48A0,0,0,0,1,76.48,193.78Z"/><path class="cls-17" d="M200.26,179.68c-6.22-11.08-17.37-11.53-26.63-19.85-5.45-4.9-11.48-13.63-13.22-30.43v64.38h9.89v4.48a1.26,1.26,0,0,0,2.53,0v-4.48h12.95v4.48a1.26,1.26,0,0,0,2.53,0v-4.48h12.95v4.48a1.26,1.26,0,0,0,2.53,0v-4.48A29.1,29.1,0,0,0,200.26,179.68Z"/><rect class="cls-18" x="61" y="205.1" width="27.9" height="2"/><rect class="cls-18" x="160.4" y="205.1" width="27.9" height="2"/><path class="cls-19" d="M121.39,129.71a118.27,118.27,0,0,1-4.33,23.86,120,120,0,0,1-20.39,39.92h24.73Z"/><rect class="cls-18" x="110.7" y="205.1" width="27.89" height="2"/><path class="cls-20" d="M123.65,57.17V63.7a20.65,20.65,0,0,0-11.87,4.43,7.51,7.51,0,0,1-9.11.32l-.08-.06A27.08,27.08,0,0,1,123.65,57.17Z"/><path class="cls-20" d="M146.71,68.39l-.08.06a7.51,7.51,0,0,1-9.11-.32,20.65,20.65,0,0,0-11.87-4.43V57.17A27.08,27.08,0,0,1,146.71,68.39Z"/></g></g></g></svg>