<svg xmlns="http://www.w3.org/2000/svg" viewBox="0 0 222.07 207.59"><defs><style>.cls-1,.cls-15{fill:#3384ff;}.cls-2{fill:#0065ff;}.cls-3{fill:#fff;}.cls-15,.cls-3,.cls-5{stroke:#0065ff;}.cls-10,.cls-11,.cls-12,.cls-13,.cls-3,.cls-4,.cls-5,.cls-6,.cls-7,.cls-8,.cls-9{stroke-miterlimit:10;}.cls-10,.cls-11,.cls-12,.cls-13,.cls-15,.cls-3,.cls-4,.cls-5,.cls-6,.cls-7,.cls-8,.cls-9{stroke-width:4.27px;}.cls-10,.cls-11,.cls-4,.cls-5,.cls-6{fill:none;}.cls-4{stroke:#6bd5e5;}.cls-6{stroke:#99c1ff;}.cls-7,.cls-8{fill:#99c1ff;}.cls-7{stroke:#cfd4db;}.cls-13,.cls-8{stroke:#fafbfc;}.cls-9{fill:#c1c7d0;}.cls-11,.cls-9{stroke:#fdc150;}.cls-10,.cls-12{stroke:#3dc7dc;}.cls-12{fill:#fdc150;}.cls-13{fill:#cfd4db;}.cls-14{fill:#66a3ff;}.cls-15{stroke-linecap:round;stroke-linejoin:round;}</style></defs><title>Save code</title><g id="Layer_2" data-name="Layer 2"><g id="Objects"><path id="_Path_" data-name="&lt;Path&gt;" class="cls-1" d="M170,75H73.9c-19,0-13.65-15.74-32.41-15.74H6.62A6.61,6.61,0,0,0,0,65.89v141.7H176.66v-126A6.62,6.62,0,0,0,170,75Z"/><path class="cls-2" d="M0,207.58H118.84L48,100a64.64,64.64,0,0,0-36,13.77A63.55,63.55,0,0,0,0,126.28Z"/><line class="cls-3" x1="33.07" y1="166.49" x2="70.39" y2="166.49"/><line class="cls-4" x1="47.32" y1="32.16" x2="92.66" y2="32.16"/><line class="cls-5" x1="33.07" y1="17.15" x2="119.45" y2="17.15"/><line class="cls-5" x1="78.12" y1="62.19" x2="123.46" y2="62.19"/><line class="cls-6" x1="33.07" y1="2.14" x2="57.6" y2="2.14"/><line class="cls-6" x1="47.32" y1="47.17" x2="71.85" y2="47.17"/><line class="cls-7" x1="19.13" y1="2.14" x2="24.73" y2="2.14"/><line class="cls-7" x1="19.13" y1="17.15" x2="24.73" y2="17.15"/><line class="cls-7" x1="19.13" y1="32.16" x2="24.73" y2="32.16"/><line class="cls-7" x1="19.13" y1="47.17" x2="24.73" y2="47.17"/><line class="cls-8" x1="19.13" y1="61.45" x2="24.73" y2="61.45"/><line class="cls-8" x1="19.13" y1="77.2" x2="24.73" y2="77.2"/><line class="cls-8" x1="19.13" y1="92.21" x2="24.73" y2="92.21"/><line class="cls-8" x1="19.13" y1="107.22" x2="24.73" y2="107.22"/><line class="cls-8" x1="19.13" y1="122.23" x2="24.73" y2="122.23"/><line class="cls-8" x1="19.13" y1="137.25" x2="24.73" y2="137.25"/><line class="cls-8" x1="19.13" y1="152.26" x2="24.73" y2="152.26"/><line class="cls-8" x1="19.13" y1="167.27" x2="24.73" y2="167.27"/><line class="cls-8" x1="19.13" y1="182.28" x2="24.73" y2="182.28"/><line class="cls-9" x1="76.29" y1="77.2" x2="160.63" y2="77.2"/><path class="cls-10" d="M46.06,77.2h0Z"/><line class="cls-5" x1="95.23" y1="90.79" x2="160.63" y2="90.79"/><line class="cls-11" x1="46.06" y1="90.79" x2="86.68" y2="90.79"/><line class="cls-12" x1="33.38" y1="107.22" x2="146.93" y2="107.22"/><line class="cls-12" x1="35.11" y1="122.23" x2="119.04" y2="122.23"/><line class="cls-13" x1="33.07" y1="152.26" x2="98.22" y2="152.26"/><line class="cls-3" x1="82.13" y1="137.25" x2="119.45" y2="137.25"/><line class="cls-9" x1="77.24" y1="47.17" x2="160.63" y2="47.17"/><path id="_Clipping_Path_" data-name="&lt;Clipping Path&gt;" class="cls-14" d="M176.65,207.58H0L46.72,102.77A4.74,4.74,0,0,1,51,100H217.33a4.73,4.73,0,0,1,4.32,6.66Z"/><ellipse class="cls-1" cx="114.96" cy="154.75" rx="48.47" ry="31.18" transform="translate(-70.34 101.57) rotate(-37.38)"/><polyline class="cls-15" points="93.4 168.82 84.96 154.75 106.04 140.68"/><polyline class="cls-15" points="135.68 140.68 144.12 154.75 123.05 168.82"/><line class="cls-15" x1="129.82" y1="134.44" x2="100.1" y2="175.06"/></g></g></svg>