<svg xmlns="http://www.w3.org/2000/svg" viewBox="0 0 195.2 147.25"><defs><style>.cls-1,.cls-2,.cls-6,.cls-7{fill:none;stroke-width:2px;}.cls-1,.cls-7{stroke:#0065ff;}.cls-1,.cls-2,.cls-6{stroke-miterlimit:10;}.cls-2,.cls-6{stroke:#ff5630;}.cls-3{fill:#253858;}.cls-4{fill:#0065ff;}.cls-5{fill:#ff5630;}.cls-6,.cls-7{stroke-linecap:round;}.cls-7{stroke-linejoin:round;}</style></defs><title>Simple Workflow</title><g id="Layer_2" data-name="Layer 2"><g id="Software"><path class="cls-1" d="M21.13,132.67V78.43a5,5,0,0,1,5-5h147.3"/><line class="cls-2" x1="14.52" y1="127.39" x2="98.63" y2="127.39"/><polygon class="cls-3" points="68.75 147.25 98.63 104.99 128.52 147.25 68.75 147.25"/><rect class="cls-4" y="104.99" width="42.27" height="42.27"/><rect class="cls-4" x="77.5" width="42.27" height="42.27" rx="21.13" ry="21.13"/><path class="cls-1" d="M98.63,22.28h70.56a5.58,5.58,0,0,1,5.58,5.58V63.63"/><line class="cls-2" x1="21.13" y1="22.28" x2="77.5" y2="22.28"/><rect class="cls-5" y="1.15" width="42.27" height="42.27" rx="21.13" ry="21.13"/><rect class="cls-5" x="152.93" y="52.32" width="42.27" height="42.27"/><polyline class="cls-6" points="56.13 15.04 63.37 22.28 56.13 29.53"/><polyline class="cls-6" points="58.6 120.14 65.85 127.39 58.6 134.63"/><polyline class="cls-7" points="182.02 40.67 174.78 47.92 167.53 40.67"/><polyline class="cls-7" points="182.02 32.13 174.78 39.38 167.53 32.13"/><polyline class="cls-7" points="28.38 87.76 21.13 95 13.89 87.76"/></g></g></svg>